<mxfile host="app.diagrams.net" modified="2021-09-16T02:20:29.132Z" agent="5.0 (Macintosh; Intel Mac OS X 10_15_7) AppleWebKit/537.36 (KHTML, like Gecko) Chrome/93.0.4577.63 Safari/537.36" etag="SNxMku2J8n4JRHILmzce" version="14.9.8" type="github">
  <diagram id="L7BpA4QHgW0xVZwTFaqs" name="Page-1">
    <mxGraphModel dx="1251" dy="661" grid="1" gridSize="10" guides="1" tooltips="1" connect="1" arrows="1" fold="1" page="1" pageScale="1" pageWidth="1169" pageHeight="1654" math="0" shadow="0">
      <root>
        <mxCell id="0" />
        <mxCell id="1" parent="0" />
        <mxCell id="FpfPY-nesKtupaKhhd6A-137" value="" style="aspect=fixed;perimeter=ellipsePerimeter;html=1;align=center;shadow=0;dashed=0;spacingTop=3;image;image=img/lib/active_directory/generic_server.svg;comic=0;fontSize=14;fontColor=#000000;fillColor=#ffffff;" vertex="1" parent="1">
          <mxGeometry x="330.4" y="500" width="39.2" height="70" as="geometry" />
        </mxCell>
        <mxCell id="FpfPY-nesKtupaKhhd6A-154" style="edgeStyle=orthogonalEdgeStyle;curved=1;rounded=0;orthogonalLoop=1;jettySize=auto;html=1;entryX=0;entryY=0.5;entryDx=0;entryDy=0;fontSize=14;fontColor=#000000;endArrow=classic;endFill=1;strokeColor=#000000;strokeWidth=1;startArrow=classic;startFill=1;" edge="1" parent="1" source="FpfPY-nesKtupaKhhd6A-149" target="FpfPY-nesKtupaKhhd6A-150">
          <mxGeometry relative="1" as="geometry" />
        </mxCell>
        <mxCell id="FpfPY-nesKtupaKhhd6A-157" style="edgeStyle=orthogonalEdgeStyle;curved=1;rounded=0;orthogonalLoop=1;jettySize=auto;html=1;fontSize=14;fontColor=#000000;startArrow=none;startFill=0;endArrow=classic;endFill=1;strokeColor=#000000;strokeWidth=1;" edge="1" parent="1" source="FpfPY-nesKtupaKhhd6A-149" target="FpfPY-nesKtupaKhhd6A-137">
          <mxGeometry relative="1" as="geometry" />
        </mxCell>
        <mxCell id="FpfPY-nesKtupaKhhd6A-159" style="rounded=0;orthogonalLoop=1;jettySize=auto;html=1;entryX=0;entryY=0.5;entryDx=0;entryDy=0;fontSize=14;fontColor=#000000;startArrow=none;startFill=0;endArrow=classic;endFill=1;strokeColor=#000000;strokeWidth=1;" edge="1" parent="1" source="FpfPY-nesKtupaKhhd6A-149" target="FpfPY-nesKtupaKhhd6A-156">
          <mxGeometry relative="1" as="geometry" />
        </mxCell>
        <mxCell id="FpfPY-nesKtupaKhhd6A-149" value="Keepalived&lt;br&gt;(主)" style="rounded=0;whiteSpace=wrap;html=1;comic=0;fontSize=14;fillColor=#dae8fc;strokeColor=#6c8ebf;" vertex="1" parent="1">
          <mxGeometry x="290" y="350" width="120" height="60" as="geometry" />
        </mxCell>
        <mxCell id="FpfPY-nesKtupaKhhd6A-158" style="edgeStyle=orthogonalEdgeStyle;curved=1;rounded=0;orthogonalLoop=1;jettySize=auto;html=1;entryX=0.5;entryY=0;entryDx=0;entryDy=0;fontSize=14;fontColor=#000000;startArrow=none;startFill=0;endArrow=classic;endFill=1;strokeColor=#000000;strokeWidth=1;" edge="1" parent="1" source="FpfPY-nesKtupaKhhd6A-150" target="FpfPY-nesKtupaKhhd6A-156">
          <mxGeometry relative="1" as="geometry" />
        </mxCell>
        <mxCell id="FpfPY-nesKtupaKhhd6A-160" style="edgeStyle=none;rounded=0;orthogonalLoop=1;jettySize=auto;html=1;fontSize=14;fontColor=#000000;startArrow=none;startFill=0;endArrow=classic;endFill=1;strokeColor=#000000;strokeWidth=1;" edge="1" parent="1" source="FpfPY-nesKtupaKhhd6A-150" target="FpfPY-nesKtupaKhhd6A-137">
          <mxGeometry relative="1" as="geometry" />
        </mxCell>
        <mxCell id="FpfPY-nesKtupaKhhd6A-150" value="Keepalived&lt;br&gt;(备)" style="rounded=0;whiteSpace=wrap;html=1;comic=0;fontSize=14;fontColor=#333333;fillColor=#f5f5f5;strokeColor=#666666;" vertex="1" parent="1">
          <mxGeometry x="570" y="350" width="120" height="60" as="geometry" />
        </mxCell>
        <mxCell id="FpfPY-nesKtupaKhhd6A-152" style="edgeStyle=orthogonalEdgeStyle;rounded=0;orthogonalLoop=1;jettySize=auto;html=1;fontSize=14;fontColor=#000000;endArrow=classic;endFill=1;strokeColor=#000000;strokeWidth=1;curved=1;" edge="1" parent="1" source="FpfPY-nesKtupaKhhd6A-151" target="FpfPY-nesKtupaKhhd6A-149">
          <mxGeometry relative="1" as="geometry">
            <Array as="points">
              <mxPoint x="495" y="310" />
              <mxPoint x="370" y="310" />
            </Array>
          </mxGeometry>
        </mxCell>
        <mxCell id="FpfPY-nesKtupaKhhd6A-153" style="edgeStyle=orthogonalEdgeStyle;curved=1;rounded=0;orthogonalLoop=1;jettySize=auto;html=1;fontSize=14;fontColor=#000000;endArrow=classic;endFill=1;strokeColor=#000000;strokeWidth=1;dashed=1;" edge="1" parent="1" source="FpfPY-nesKtupaKhhd6A-151" target="FpfPY-nesKtupaKhhd6A-150">
          <mxGeometry relative="1" as="geometry">
            <Array as="points">
              <mxPoint x="495" y="310" />
              <mxPoint x="610" y="310" />
            </Array>
          </mxGeometry>
        </mxCell>
        <mxCell id="FpfPY-nesKtupaKhhd6A-151" value="" style="verticalLabelPosition=bottom;html=1;verticalAlign=top;align=center;strokeColor=none;fillColor=#00BEF2;shape=mxgraph.azure.computer;pointerEvents=1;comic=0;fontSize=14;fontColor=#000000;" vertex="1" parent="1">
          <mxGeometry x="470" y="220" width="50" height="45" as="geometry" />
        </mxCell>
        <mxCell id="FpfPY-nesKtupaKhhd6A-155" value="虚拟IP&lt;br&gt;115.205.4.210" style="text;html=1;strokeColor=none;fillColor=none;align=center;verticalAlign=middle;whiteSpace=wrap;rounded=0;comic=0;fontSize=14;fontColor=#000000;" vertex="1" parent="1">
          <mxGeometry x="460" y="350" width="50" height="20" as="geometry" />
        </mxCell>
        <mxCell id="FpfPY-nesKtupaKhhd6A-156" value="" style="aspect=fixed;perimeter=ellipsePerimeter;html=1;align=center;shadow=0;dashed=0;spacingTop=3;image;image=img/lib/active_directory/generic_server.svg;comic=0;fontSize=14;fontColor=#000000;fillColor=#ffffff;" vertex="1" parent="1">
          <mxGeometry x="610.4" y="500" width="39.2" height="70" as="geometry" />
        </mxCell>
      </root>
    </mxGraphModel>
  </diagram>
</mxfile>
